<svg height='100px' width='100px'  fill="#000000" xmlns="http://www.w3.org/2000/svg" xmlns:xlink="http://www.w3.org/1999/xlink" xml:space="preserve" version="1.1" style="shape-rendering:geometricPrecision;text-rendering:geometricPrecision;image-rendering:optimizeQuality;" viewBox="0 0 847 847" x="0px" y="0px" fill-rule="evenodd" clip-rule="evenodd"><defs><style type="text/css">
   
    .fil0 {fill:#000000;fill-rule:nonzero}
   
  </style></defs><g><path class="fil0" d="M256 198l107 -35c-1,-7 -1,-14 -1,-21 0,-33 13,-62 34,-84 46,-46 122,-46 168,0 45,46 46,120 1,166l73 94c17,-10 37,-15 58,-15 65,0 119,53 119,118 0,65 -53,118 -119,118 -18,0 -37,-4 -53,-12l-65 92c10,9 18,19 24,31 24,46 15,102 -21,138 -46,46 -122,46 -168,0 -25,-25 -38,-61 -33,-99l-98 -28c-19,43 -61,71 -108,71 -66,0 -119,-54 -119,-119 0,-56 40,-104 94,-116l-8 -128c-29,-3 -55,-15 -74,-35 -46,-46 -46,-121 0,-167 46,-46 121,-46 167,0 9,9 17,19 22,31zm118 -3l-107 35c2,13 2,26 0,39l91 29 44 -67c-12,-11 -21,-22 -28,-36zm46 7c15,15 37,24 60,24 23,0 44,-9 60,-24 32,-33 32,-87 0,-120 -33,-33 -87,-33 -120,0 -15,15 -25,37 -25,60 0,22 9,44 25,60zm-7 420l-121 -160 -40 62c29,26 44,66 39,105l98 28c6,-13 14,-25 24,-35zm-143 -188l-61 -81c-11,6 -22,11 -34,13l8 129c14,1 28,5 40,11l47 -72zm-34 -101l54 71 49 -77 -82 -25c-5,11 -13,22 -21,31zm75 99l128 169c12,-6 24,-11 38,-13l-7 -220 -97 -30 -62 94zm119 -183l-38 59 77 24 -2 -72c-13,-2 -26,-5 -37,-11zm73 94l86 27c6,-12 13,-22 22,-31l-73 -94c-11,6 -24,11 -38,14l3 84zm76 59l-75 -23 6 208c14,2 28,6 40,12l65 -92c-29,-27 -42,-66 -36,-105zm202 19c0,-47 -38,-84 -85,-84 -23,0 -44,9 -60,24 -26,26 -32,66 -15,99 40,77 160,50 160,-39zm-344 343c68,68 179,-13 135,-98 -6,-12 -15,-23 -27,-30 -14,-10 -31,-16 -48,-16 -19,0 -36,6 -50,16 -42,31 -47,92 -10,128zm-348 -151c0,47 38,85 85,85 74,0 111,-90 61,-143 -53,-56 -146,-17 -146,58zm121 -422c-33,-33 -86,-33 -119,0 -33,33 -33,87 0,119 33,33 86,33 119,0 33,-33 33,-86 0,-119z"></path></g></svg>